<svg width="60" height="60" viewBox="0 0 60 60" fill="none" xmlns="http://www.w3.org/2000/svg">
<path d="M30 5C20.325 5 12.5 12.825 12.5 22.5C12.5 26.85 13.75 30.925 16.025 34.6C18.4 38.45 21.525 41.75 23.925 45.6C25.1 47.475 25.95 49.225 26.85 51.25C27.5 52.625 28.025 55 30 55C31.975 55 32.5 52.625 33.125 51.25C34.05 49.225 34.875 47.475 36.05 45.6C38.45 41.775 41.575 38.475 43.95 34.6C46.25 30.925 47.5 26.85 47.5 22.5C47.5 12.825 39.675 5 30 5ZM30 29.375C26.55 29.375 23.75 26.575 23.75 23.125C23.75 19.675 26.55 16.875 30 16.875C33.45 16.875 36.25 19.675 36.25 23.125C36.25 26.575 33.45 29.375 30 29.375Z" fill="black"/>
</svg>
