<svg width="60" height="60" viewBox="0 0 60 60" fill="none" xmlns="http://www.w3.org/2000/svg">
<path d="M30.0001 5C20.3251 5 12.5001 12.825 12.5001 22.5C12.5001 26.85 13.7501 30.925 16.0251 34.6C18.4001 38.45 21.5251 41.75 23.9251 45.6C25.1001 47.475 25.9501 49.225 26.8501 51.25C27.5001 52.625 28.0251 55 30.0001 55C31.9751 55 32.5001 52.625 33.1251 51.25C34.0501 49.225 34.8751 47.475 36.0501 45.6C38.4501 41.775 41.5751 38.475 43.9501 34.6C46.2501 30.925 47.5001 26.85 47.5001 22.5C47.5001 12.825 39.6751 5 30.0001 5ZM30.0001 29.375C26.5501 29.375 23.7501 26.575 23.7501 23.125C23.7501 19.675 26.5501 16.875 30.0001 16.875C33.4501 16.875 36.2501 19.675 36.2501 23.125C36.2501 26.575 33.4501 29.375 30.0001 29.375Z" fill="black"/>
</svg>
