<svg width="60" height="60" viewBox="0 0 60 60" fill="none" xmlns="http://www.w3.org/2000/svg">
<path d="M30 38C34.4183 38 38 34.4183 38 30C38 25.5817 34.4183 22 30 22C25.5817 22 22 25.5817 22 30C22 34.4183 25.5817 38 30 38Z" fill="black"/>
<path d="M22.5 5L17.925 10H10C7.25 10 5 12.25 5 15V45C5 47.75 7.25 50 10 50H50C52.75 50 55 47.75 55 45V15C55 12.25 52.75 10 50 10H42.075L37.5 5H22.5ZM30 42.5C23.1 42.5 17.5 36.9 17.5 30C17.5 23.1 23.1 17.5 30 17.5C36.9 17.5 42.5 23.1 42.5 30C42.5 36.9 36.9 42.5 30 42.5Z" fill="black"/>
</svg>
